<svg xmlns="http://www.w3.org/2000/svg" xmlns:xlink="http://www.w3.org/1999/xlink" width="20" height="20" viewBox="0 0 20 20" style="max-width: none;margin-left: -2px;">
    <defs>
        <clipPath id="clip-path">
            <rect id="Rectangle_1" data-name="Rectangle 1" width="20" height="20" transform="translate(182 52)" fill="none"></rect>
        </clipPath>
    </defs>
    <g id="icon" transform="translate(-182 -52)" clip-path="url(#clip-path)">
        <g id="icon-2" data-name="icon" transform="translate(107.113 1.573)">
            <path id="Path_3" data-name="Path 3" d="M117.9,51.656a5.78,5.78,0,0,1,2.092,3.739,5.763,5.763,0,0,1-5.171,6.452,6.231,6.231,0,0,1-4.43-1.517,5.914,5.914,0,0,1-1.221-6.739l.158-.291a6.177,6.177,0,0,1,3.35-2.715,6.353,6.353,0,0,1,5.223,1.071m-7.015,1.415a4.791,4.791,0,0,0-1.115,3.727,5.188,5.188,0,0,0,.3,1l.077.2a4.759,4.759,0,0,0,2.24,2.27l.258.126a5.1,5.1,0,0,0,3.1.093,4.964,4.964,0,0,0,2.8-2.569,4.1,4.1,0,0,0,.342-1.327l.025-.235a4.8,4.8,0,0,0-1.127-3.272,5.066,5.066,0,0,0-2.1-1.3l-.232-.108a4.538,4.538,0,0,0-4.566,1.392" transform="translate(-27.661)" fill="#9340ef"></path>
            <path id="Path_4" data-name="Path 4" d="M202,175h1.9c.1.1.1.1.112.39V176q0,.355,0,.711v.492q0,.648,0,1.3t0,1.322q0,1.3,0,2.6h-2Z" transform="translate(-111.676 -112.089)" fill="#420183"></path>
            <path id="Path_5" data-name="Path 5" d="M119.415,179.857h1.3c.185.013.185.013.285.113.009.215.012.431.011.646v.2q0,.336,0,.672v.465q0,.613,0,1.225t0,1.249q0,1.227,0,2.453h-2.1q0-1.35-.005-2.7,0-.627,0-1.253,0-.6,0-1.209,0-.231,0-.462,0-.323,0-.645v-.372c.019-.433.143-.388.535-.388" transform="translate(-36.885 -116.458)" fill="#470886"></path>
            <path id="Path_6" data-name="Path 6" d="M81.407,134q.162.242.307.495a7.031,7.031,0,0,0,2.3,2.211c-.175.388-.175.388-.4.5q-.219.01-.438.006l-.234,0-.229,0c-.416-.044-.416-.044-.7.258q-.172.177-.34.356l-.373.384-.583.61q-.282.294-.566.585l-.174.186c-.406.415-.406.415-.75.477a1.286,1.286,0,0,1-.7-.469l-.236-.236a.977.977,0,0,1-.29-.747,4.063,4.063,0,0,1,.629-.667l.2-.19c.278-.268.559-.533.84-.8q.306-.291.61-.585l.2-.18a3.142,3.142,0,0,0,.434-.487.757.757,0,0,0-.1-.5,1.283,1.283,0,0,1,.188-1c.213-.207.213-.207.413-.207" transform="translate(-0.101 -75.198)" fill="#923eef"></path>
            <path id="Path_7" data-name="Path 7" d="M160.369,194.77q.233,0,.467,0h.238c.585,0,.585,0,.814.119V200.3h-2.1q-.008-1.129-.011-2.258,0-.384,0-.769,0-.551,0-1.1l0-.349v-.607c.045-.421.208-.425.61-.449" transform="translate(-73.668 -129.878)" fill="#490a87"></path>
            <path id="Path_8" data-name="Path 8" d="M136.2,91.936c.2.01.4.026.6.044.737.058,1.472.068,2.211.069h.329a7.6,7.6,0,0,0,1.469-.114q.244-.01.489-.006l.237,0,.176,0,.1.5a3.328,3.328,0,0,1-1.39.42l-.209.025c-.168.02-.337.038-.5.057a6.4,6.4,0,0,0,.583,2.963,1.05,1.05,0,0,1,.019.846l-.4.1a12.043,12.043,0,0,1-1-1.9l-.1.238A11.174,11.174,0,0,1,138,96.847c-.388-.088-.388-.088-.5-.2a4.128,4.128,0,0,1,.294-1.24,5.3,5.3,0,0,0,.412-1.994l0-.27c0-.067,0-.134,0-.2l-.181-.024-.809-.113-.285-.038-.272-.039-.251-.035c-.207-.05-.207-.05-.407-.251.054-.354.054-.354.2-.5" transform="translate(-52.289 -37.343)" fill="#4a0b88"></path>
            <path id="Path_9" data-name="Path 9" d="M78.894,215.618l.254,0h.467c.187.024.187.024.387.225.018.244.023.477.02.721v.215c0,.227,0,.453-.006.68q0,.23,0,.461c0,.377-.006.753-.01,1.13H77.9q0-.7-.006-1.407,0-.24,0-.479,0-.344,0-.687l0-.218c0-.172.005-.344.011-.516.216-.216.7-.119,1-.119" transform="translate(0 -148.617)" fill="#480987"></path>
            <path id="Path_10" data-name="Path 10" d="M156.737,73.375a.977.977,0,0,1,1,1.265,1.474,1.474,0,0,1-.6.6c-.726.059-.726.059-1.046-.188a1.187,1.187,0,0,1-.257-1.015c.241-.407.422-.638.9-.664" transform="translate(-70.121 -20.648)" fill="#460786"></path>
        </g>
    </g>
</svg>
