<?xml version="1.0" standalone="no"?>
<!DOCTYPE svg PUBLIC "-//W3C//DTD SVG 20010904//EN"
 "http://www.w3.org/TR/2001/REC-SVG-20010904/DTD/svg10.dtd">
<svg version="1.0" xmlns="http://www.w3.org/2000/svg"
 width="800.000000pt" height="800.000000pt" viewBox="0 0 800.000000 800.000000"
 preserveAspectRatio="xMidYMid meet">

<g transform="translate(0.000000,800.000000) scale(0.100000,-0.100000)"
fill="#000000" stroke="none">
<path d="M4236 6639 c-313 -36 -627 -182 -860 -401 -236 -220 -387 -498 -453
-833 -27 -137 -24 -425 5 -562 66 -304 198 -549 417 -769 274 -276 610 -424
1000 -441 886 -39 1618 697 1571 1580 -31 599 -411 1123 -968 1337 -212 81
-485 116 -712 89z m455 -322 c237 -62 414 -163 582 -333 336 -339 436 -841
259 -1296 -138 -355 -472 -642 -849 -729 -114 -26 -332 -36 -443 -20 -403 59
-757 323 -929 692 -287 617 0 1359 628 1624 168 71 306 96 506 90 118 -3 170
-9 246 -28z"/>
<path d="M4357 6029 c-119 -29 -196 -123 -197 -242 0 -99 44 -174 131 -221 92
-51 204 -38 281 32 61 55 82 104 82 187 0 80 -20 129 -76 182 -57 55 -147 80
-221 62z"/>
<path d="M3666 5527 c-20 -20 -26 -36 -26 -67 0 -52 32 -85 93 -94 128 -21
245 -36 346 -45 169 -16 178 -29 155 -213 -26 -214 -68 -378 -158 -616 -51
-137 -56 -177 -25 -216 27 -34 86 -36 123 -3 26 23 78 132 177 372 l58 140 16
-40 c190 -456 223 -514 289 -501 36 8 72 39 80 72 4 15 -16 85 -60 206 -94
259 -148 497 -156 681 -2 49 1 61 23 82 22 22 38 26 134 35 133 12 317 37 367
51 74 19 103 105 53 154 -30 31 -51 31 -221 5 -312 -47 -678 -51 -979 -10
-265 36 -260 36 -289 7z"/>
<path d="M2917 4382 c-59 -64 -78 -103 -84 -172 -6 -64 7 -117 44 -170 l23
-35 -404 -405 c-261 -261 -407 -414 -411 -432 -4 -14 -1 -37 5 -50 7 -12 73
-85 148 -160 140 -141 169 -160 214 -138 13 7 203 192 424 412 l400 399 26
-21 c37 -28 102 -50 152 -50 69 0 133 28 193 84 l56 52 -91 52 c-240 139 -474
374 -602 607 -23 41 -43 75 -44 75 -2 0 -24 -22 -49 -48z"/>
<path d="M5413 3330 c-12 -5 -26 -18 -32 -29 -8 -13 -11 -321 -11 -985 l0
-966 275 0 275 0 0 974 0 975 -26 20 c-25 20 -39 21 -243 20 -119 0 -226 -4
-238 -9z"/>
<path d="M3200 3180 c-20 -20 -20 -33 -20 -925 l0 -905 275 0 275 0 -2 906 -3
906 -24 19 c-21 17 -42 19 -252 19 -216 0 -230 -1 -249 -20z"/>
<path d="M4300 2770 c-20 -20 -20 -33 -20 -720 l0 -700 270 0 270 0 0 700 c0
687 0 700 -20 720 -19 19 -33 20 -250 20 -217 0 -231 -1 -250 -20z"/>
<path d="M2106 2219 l-26 -20 0 -425 0 -424 275 0 275 0 0 420 0 421 -25 24
-24 25 -224 0 c-212 0 -226 -1 -251 -21z"/>
</g>
</svg>
